<svg width="177" height="30" viewBox="0 0 177 30" fill="none" xmlns="http://www.w3.org/2000/svg">
<path d="M7.07298 16.9829C7.07298 18.4082 8.49404 19.1209 11.3362 19.1209C13.2565 19.1209 15.6676 18.3954 18.5695 16.9445L19.8753 16.2532C21.8554 15.2461 22.9735 15.0284 23.2295 15.6003C23.2978 15.7539 23.3319 15.9331 23.3319 16.1379C23.3319 16.3343 23.2466 16.5391 23.0759 16.7525C22.9137 16.9573 22.6918 17.1877 22.4102 17.4438C22.1285 17.6913 21.7999 17.9559 21.4244 18.2375C21.0489 18.5106 20.652 18.7838 20.2338 19.0569L18.9792 19.8378C18.5524 20.0939 18.0915 20.3456 17.5965 20.5932L15.7274 21.5149C12.7999 22.8805 10.0389 23.5633 7.44425 23.5633C5.17397 23.5633 3.42858 23.1152 2.20809 22.2191C1.11563 21.4253 0.569396 20.4011 0.569396 19.1465C0.569396 17.4139 1.35034 15.6685 2.91222 13.9103C4.26074 12.3997 6.10854 10.9658 8.45563 9.60876C10.504 8.42241 12.6889 7.44943 15.0104 6.68983C17.2039 5.96436 18.9834 5.60163 20.349 5.60163C20.6392 5.60163 20.8824 5.69551 21.0787 5.88328C21.4372 6.21614 21.6164 6.54473 21.6164 6.86906C21.6164 8.13222 21.0915 9.15214 20.0417 9.92882C19.1456 10.586 18.1001 10.9146 16.9052 10.9146C15.7103 10.9146 14.8141 10.7951 14.2167 10.5561C11.9891 11.4182 10.1797 12.5746 8.78849 14.0256C8.20812 14.6315 7.77711 15.1991 7.49546 15.7283C7.21381 16.2574 7.07298 16.6756 7.07298 16.9829ZM34.2272 15.1138C34.2272 15.5746 34.6198 15.8051 35.4051 15.8051C35.9854 15.8051 36.745 15.5234 37.6839 14.9601L38.7081 14.3968C39.0239 14.2176 39.297 14.128 39.5274 14.128C39.7664 14.128 39.9542 14.2005 40.0907 14.3456C40.2273 14.4907 40.2955 14.6913 40.2955 14.9473C40.2955 15.2034 40.2102 15.5021 40.0395 15.8435C39.8688 16.1764 39.6341 16.5306 39.3354 16.9061C39.0367 17.2731 38.6867 17.6401 38.2856 18.0071C37.8844 18.3656 37.4534 18.6899 36.9925 18.9801C35.9684 19.6202 35.0167 19.9402 34.1376 19.9402C33.2073 19.9402 32.4648 19.7823 31.91 19.4666C31.7393 19.3641 31.5729 19.2575 31.4107 19.1465C30.4975 20.1878 29.1746 21.1437 27.442 22.0142C25.5985 22.936 23.9896 23.3969 22.6155 23.3969C21.1731 23.3969 20.0337 22.8293 19.1973 21.6942C18.523 20.7724 18.1859 19.8378 18.1859 18.8905C18.1859 17.5249 18.9157 16.2233 20.3751 14.9857C21.4505 14.081 22.4875 13.394 23.4861 12.9246C24.4932 12.4551 25.4022 12.0924 26.213 11.8364C27.9285 11.2987 29.4733 11.0298 30.8474 11.0298C31.4619 11.0298 32.0082 11.1493 32.4861 11.3883C32.9726 11.6187 33.3311 11.8534 33.5615 12.0924C34.1078 12.6301 34.3809 13.3172 34.3809 14.1536C34.3809 14.4011 34.3553 14.5931 34.3041 14.7297C34.2528 14.8663 34.2272 14.9943 34.2272 15.1138ZM23.7549 17.5334L23.7421 17.5718V17.5846C23.7421 17.9516 23.8232 18.1906 23.9854 18.3015C24.378 18.5405 24.7919 18.6045 25.2272 18.4936C25.6625 18.3741 26.0764 18.229 26.469 18.0583C27.442 17.6401 28.3211 17.1109 29.1063 16.4708C28.9698 16.1977 28.9015 15.916 28.9015 15.6259C28.9015 15.0113 29.1703 14.3968 29.708 13.7823C29.0252 13.7823 28.1035 14.1024 26.9427 14.7425C25.6625 15.4509 24.7023 16.1806 24.0622 16.9317C23.8574 17.1877 23.7549 17.3883 23.7549 17.5334ZM51.7926 16.1251C51.7926 16.9018 52.0187 17.2902 52.4711 17.2902C53.5806 17.2902 55.023 16.5391 56.7983 15.0369L57.1439 14.7425C57.8353 14.2816 58.3943 14.0512 58.821 14.0512C59.2563 14.0512 59.5294 14.1152 59.6404 14.2432C59.7599 14.3712 59.8196 14.5761 59.8196 14.8577C59.8196 15.4893 59.4996 16.1593 58.8594 16.8677C57.9035 18.0284 56.5934 19.1294 54.9291 20.1707C53.0002 21.3826 51.2719 21.9886 49.7442 21.9886C48.6773 21.9886 48.0073 21.3954 47.7342 20.2091C47.6574 19.9018 47.6019 19.6074 47.5678 19.3257C47.4824 18.6429 47.3928 18.2631 47.2989 18.1863C47.2051 18.1095 47.0173 18.118 46.7356 18.2119C46.4625 18.2973 46.1339 18.4466 45.7499 18.66C45.3743 18.8648 44.9561 19.1166 44.4952 19.4153C42.0542 21.037 40.6503 21.963 40.2833 22.1935C39.4042 22.7397 38.811 23.0128 38.5037 23.0128C38.1965 23.0128 37.8935 22.9488 37.5948 22.8208C37.3046 22.6927 37.0485 22.5306 36.8266 22.3343C36.3657 21.899 36.1353 21.4552 36.1353 21.0028C36.1353 18.4168 36.6986 16.155 37.8252 14.2176C38.5763 12.9118 39.498 12.0071 40.5905 11.5035C41.1453 11.2389 41.7427 11.1066 42.3828 11.1066C43.5521 11.1066 44.1368 11.4907 44.1368 12.2588C44.1368 12.7283 43.8594 13.4964 43.3046 14.5633L42.9205 15.3186C42.6474 15.8392 42.5151 16.1337 42.5237 16.202C42.5749 16.458 42.6901 16.586 42.8693 16.586C43.0656 16.586 43.3558 16.4409 43.7399 16.1508L46.0955 14.3968L47.2733 13.5775C48.6304 12.6899 49.629 12.246 50.2691 12.246C50.6105 12.246 50.922 12.3826 51.2036 12.6557C51.7243 13.1507 51.9846 13.5817 51.9846 13.9488C51.9846 14.0682 51.9718 14.2133 51.9462 14.384C51.9291 14.5547 51.9078 14.7382 51.8822 14.9345L51.831 15.5362C51.8054 15.7411 51.7926 15.9374 51.7926 16.1251ZM70.7789 14.2304C71.6153 14.2304 72.0336 14.5206 72.0336 15.101C72.0336 15.6557 71.6409 16.3727 70.8557 17.2518L70.2284 17.9047C69.4688 18.6813 68.5812 19.4452 67.5655 20.1963C66.5584 20.9474 65.6708 21.5405 64.9027 21.9758C63.1189 22.9659 61.5015 23.4609 60.0506 23.4609C58.685 23.4609 57.5712 23.0512 56.7092 22.2319C55.9666 21.5235 55.5954 20.7767 55.5954 19.9915C55.5954 19.2062 55.6722 18.4253 55.8258 17.6486C55.9794 16.8719 56.18 16.1123 56.4275 15.3698C56.9225 13.8591 57.4645 12.5746 58.0534 11.5163C58.207 11.2261 58.2838 11.0384 58.2838 10.953H56.6323C56.0093 10.953 55.5271 10.8079 55.1857 10.5177C54.8443 10.2275 54.6736 9.89895 54.6736 9.53195C54.6736 9.16494 54.7419 8.8961 54.8784 8.7254C55.015 8.5547 55.1857 8.43094 55.3905 8.35413C55.6807 8.23464 56.1075 8.1749 56.6708 8.1749L59.8073 8.1877C59.8756 8.1621 60.0122 7.9786 60.217 7.6372L60.9979 6.29295C61.3308 5.69551 61.6637 5.25597 61.9965 4.97431C62.3379 4.69266 62.7348 4.55184 63.1871 4.55184C63.648 4.55184 64.0321 4.59451 64.3394 4.67986C64.6551 4.76521 64.9197 4.8719 65.1331 4.99992C65.5513 5.27304 65.7604 5.57176 65.7604 5.89608C65.7604 6.03264 65.7135 6.21614 65.6196 6.44658L64.9027 8.1877L70.9838 8.1749C71.5129 8.1749 71.7775 8.44801 71.7775 8.99425C71.7775 10.2916 70.621 10.9402 68.3081 10.9402L63.6224 10.953C63.52 11.0042 63.345 11.2517 63.0975 11.6955L62.5214 12.7581C62.3763 13.0227 62.2739 13.2233 62.2142 13.3598L61.9325 13.9872C61.3607 15.2759 61.0748 16.2062 61.0748 16.7781C61.0748 17.3499 61.2241 17.8279 61.5228 18.2119C61.8301 18.596 62.2355 18.788 62.7391 18.788C63.2426 18.788 63.7334 18.6899 64.2113 18.4936C64.6978 18.2973 65.1715 18.0583 65.6324 17.7766C66.4688 17.256 67.126 16.7738 67.6039 16.33C68.0819 15.8862 68.4788 15.549 68.7946 15.3186C68.7946 15.3186 69.0933 15.1095 69.6907 14.6913C70.1516 14.384 70.5143 14.2304 70.7789 14.2304ZM80.2916 8.2005C80.0441 8.40534 79.7752 8.57604 79.485 8.7126C79.1948 8.84062 78.8705 8.90463 78.512 8.90463C78.1536 8.90463 77.8079 8.84489 77.4751 8.7254C77.1422 8.60591 76.852 8.43948 76.6045 8.22611C76.0668 7.76522 75.798 7.17632 75.798 6.45939C75.798 5.35838 76.7197 4.53903 78.5633 4.00134C79.1863 3.81357 79.6984 3.71969 80.0995 3.71969C80.5007 3.71969 80.7994 3.76663 80.9957 3.86051C81.2005 3.94586 81.367 4.06108 81.495 4.20617C81.751 4.49636 81.8791 4.79508 81.8791 5.10234C81.8791 5.40106 81.8407 5.67418 81.7638 5.92169C81.6956 6.1692 81.5931 6.42525 81.4566 6.68983C81.32 6.95441 81.1536 7.21899 80.9573 7.48357C80.761 7.74815 80.5391 7.98713 80.2916 8.2005ZM77.0654 22.2959C76.4167 22.6287 75.7852 22.8933 75.1706 23.0896C74.5561 23.2945 73.9501 23.3969 73.3527 23.3969C72.7638 23.3969 72.1493 23.256 71.5092 22.9744C70.8776 22.6842 70.3143 22.3001 69.8193 21.8222C68.7183 20.7553 68.1678 19.569 68.1678 18.2631C68.1678 17.0597 68.5262 15.8392 69.2432 14.6017C69.9003 13.4836 70.7368 12.5448 71.7524 11.7852C72.7681 11.0256 73.7112 10.6457 74.5817 10.6457C75.8278 10.6457 76.4935 10.9957 76.5789 11.6955C76.6045 11.9089 76.6173 12.1564 76.6173 12.4381C76.6173 12.7197 76.549 13.0441 76.4125 13.4111C76.2844 13.7695 76.1137 14.1323 75.9004 14.4993C75.6955 14.8577 75.4651 15.2119 75.209 15.5618C74.9615 15.9032 74.7226 16.2148 74.4921 16.4964C74.0483 17.0341 73.6941 17.4225 73.4295 17.6614C73.4295 17.9516 73.6472 18.2503 74.0824 18.5576C74.4921 18.8478 74.8378 18.9929 75.1194 18.9929C75.4096 18.9929 75.7467 18.9246 76.1308 18.788C76.5234 18.6515 76.9246 18.468 77.3342 18.2375C77.7524 18.0071 78.1749 17.7425 78.6017 17.4438C79.0369 17.1451 79.4637 16.8378 79.8819 16.522L82.2247 14.6913C83.155 14.017 83.9104 13.6799 84.4907 13.6799C84.7212 13.6799 84.8961 13.7653 85.0156 13.9359C85.1437 14.0981 85.2077 14.2901 85.2077 14.5121C85.2077 14.734 85.0967 15.0412 84.8748 15.4338C84.6529 15.8179 84.3456 16.2446 83.953 16.7141C83.569 17.1835 83.1166 17.6742 82.596 18.1863C82.0754 18.6984 81.5121 19.202 80.9061 19.697C80.3001 20.192 79.6685 20.6657 79.0113 21.1181C78.3627 21.5619 77.714 21.9545 77.0654 22.2959ZM95.9749 16.1251C95.9749 16.9018 96.2011 17.2902 96.6535 17.2902C97.763 17.2902 99.2054 16.5391 100.981 15.0369L101.326 14.7425C102.018 14.2816 102.577 14.0512 103.003 14.0512C103.439 14.0512 103.712 14.1152 103.823 14.2432C103.942 14.3712 104.002 14.5761 104.002 14.8577C104.002 15.4893 103.682 16.1593 103.042 16.8677C102.086 18.0284 100.776 19.1294 99.1115 20.1707C97.1826 21.3826 95.4543 21.9886 93.9266 21.9886C92.8597 21.9886 92.1897 21.3954 91.9166 20.2091C91.8398 19.9018 91.7843 19.6074 91.7502 19.3257C91.6648 18.6429 91.5752 18.2631 91.4813 18.1863C91.3874 18.1095 91.1997 18.118 90.918 18.2119C90.6449 18.2973 90.3163 18.4466 89.9322 18.66C89.5567 18.8648 89.1385 19.1166 88.6776 19.4153C86.2366 21.037 84.8326 21.963 84.4656 22.1935C83.5866 22.7397 82.9934 23.0128 82.6861 23.0128C82.3789 23.0128 82.0759 22.9488 81.7772 22.8208C81.487 22.6927 81.2309 22.5306 81.009 22.3343C80.5481 21.899 80.3177 21.4552 80.3177 21.0028C80.3177 18.4168 80.881 16.155 82.0076 14.2176C82.7587 12.9118 83.6804 12.0071 84.7729 11.5035C85.3277 11.2389 85.9251 11.1066 86.5652 11.1066C87.7345 11.1066 88.3191 11.4907 88.3191 12.2588C88.3191 12.7283 88.0418 13.4964 87.487 14.5633L87.1029 15.3186C86.8298 15.8392 86.6975 16.1337 86.7061 16.202C86.7573 16.458 86.8725 16.586 87.0517 16.586C87.248 16.586 87.5382 16.4409 87.9223 16.1508L90.2779 14.3968L91.4557 13.5775C92.8128 12.6899 93.8113 12.246 94.4515 12.246C94.7929 12.246 95.1044 12.3826 95.386 12.6557C95.9067 13.1507 96.167 13.5817 96.167 13.9488C96.167 14.0682 96.1542 14.2133 96.1286 14.384C96.1115 14.5547 96.0902 14.7382 96.0646 14.9345L96.0133 15.5362C95.9877 15.7411 95.9749 15.9374 95.9749 16.1251ZM116.446 16.5604C116.446 17.4225 116.826 17.8535 117.586 17.8535C118.345 17.8535 119.66 17.1237 121.529 15.6643L122.656 14.7425C123.398 14.128 124.106 13.8207 124.781 13.8207C125.028 13.8207 125.19 13.889 125.267 14.0256C125.344 14.1536 125.382 14.32 125.382 14.5249C125.382 14.7212 125.344 14.9303 125.267 15.1522C125.199 15.3655 125.101 15.5917 124.973 15.8307C124.691 16.3684 124.418 16.7866 124.153 17.0853C123.889 17.384 123.577 17.6956 123.219 18.0199C122.869 18.3357 122.451 18.6941 121.964 19.0953C121.478 19.4879 120.94 19.8933 120.351 20.3115C119.762 20.7212 119.169 21.0967 118.572 21.4381C117.223 22.2233 116.114 22.6159 115.243 22.6159C114.202 22.6159 113.387 22.2489 112.798 21.5149C112.243 20.8321 111.931 19.9189 111.863 18.7752C110.327 20.3542 108.701 21.5704 106.985 22.4239C105.936 22.9445 105.048 23.2048 104.323 23.2048C103.597 23.2048 102.961 23.1195 102.415 22.9488C101.869 22.7696 101.391 22.505 100.981 22.155C100.094 21.4125 99.6497 20.3798 99.6497 19.0569C99.6497 17.1621 100.328 15.3357 101.685 13.5775C102.112 13.0312 102.59 12.5533 103.119 12.1436C104.263 11.4267 105.475 11.0682 106.755 11.0682C107.318 11.0682 107.719 11.2432 107.958 11.5931C108.052 11.7297 108.099 11.9089 108.099 12.1308C108.099 12.3442 108.035 12.596 107.907 12.8862C107.788 13.1678 107.638 13.4665 107.459 13.7823C107.28 14.0896 107.079 14.4096 106.857 14.7425C106.644 15.0754 106.448 15.3997 106.269 15.7155C105.842 16.4665 105.628 17.0085 105.628 17.3414C105.628 17.6657 105.722 17.9047 105.91 18.0583C106.098 18.2119 106.328 18.2887 106.601 18.2887C107.207 18.2887 107.724 18.1436 108.15 17.8535C108.577 17.5547 109 17.2133 109.418 16.8293L110.621 15.6515L111.786 14.448C112.614 13.6031 113.242 13.0782 113.668 12.8734C114.104 12.66 114.419 12.5789 114.616 12.6301C114.812 12.6813 115.013 12.7752 115.217 12.9118C115.422 13.0398 115.623 13.1977 115.819 13.3854C116.28 13.8293 116.536 14.2304 116.587 14.5889C116.604 14.8193 116.583 15.165 116.523 15.6259C116.472 16.0782 116.446 16.3897 116.446 16.5604ZM137.712 16.5604C137.712 17.4225 138.091 17.8535 138.851 17.8535C139.611 17.8535 140.925 17.1237 142.794 15.6643L143.921 14.7425C144.663 14.128 145.372 13.8207 146.046 13.8207C146.293 13.8207 146.456 13.889 146.532 14.0256C146.609 14.1536 146.648 14.32 146.648 14.5249C146.648 14.7212 146.609 14.9303 146.532 15.1522C146.464 15.3655 146.366 15.5917 146.238 15.8307C145.956 16.3684 145.683 16.7866 145.419 17.0853C145.154 17.384 144.842 17.6956 144.484 18.0199C144.134 18.3357 143.716 18.6941 143.229 19.0953C142.743 19.4879 142.205 19.8933 141.616 20.3115C141.027 20.7212 140.434 21.0967 139.837 21.4381C138.488 22.2233 137.379 22.6159 136.508 22.6159C135.467 22.6159 134.652 22.2489 134.063 21.5149C133.508 20.8321 133.197 19.9189 133.128 18.7752C131.592 20.3542 129.966 21.5704 128.251 22.4239C127.201 22.9445 126.313 23.2048 125.588 23.2048C124.862 23.2048 124.226 23.1195 123.68 22.9488C123.134 22.7696 122.656 22.505 122.246 22.155C121.359 21.4125 120.915 20.3798 120.915 19.0569C120.915 17.1621 121.593 15.3357 122.95 13.5775C123.377 13.0312 123.855 12.5533 124.384 12.1436C125.528 11.4267 126.74 11.0682 128.02 11.0682C128.584 11.0682 128.985 11.2432 129.224 11.5931C129.318 11.7297 129.364 11.9089 129.364 12.1308C129.364 12.3442 129.3 12.596 129.172 12.8862C129.053 13.1678 128.904 13.4665 128.724 13.7823C128.545 14.0896 128.345 14.4096 128.123 14.7425C127.909 15.0754 127.713 15.3997 127.534 15.7155C127.107 16.4665 126.894 17.0085 126.894 17.3414C126.894 17.6657 126.987 17.9047 127.175 18.0583C127.363 18.2119 127.593 18.2887 127.867 18.2887C128.473 18.2887 128.989 18.1436 129.416 17.8535C129.842 17.5547 130.265 17.2133 130.683 16.8293L131.887 15.6515L133.052 14.448C133.879 13.6031 134.507 13.0782 134.933 12.8734C135.369 12.66 135.685 12.5789 135.881 12.6301C136.077 12.6813 136.278 12.7752 136.483 12.9118C136.687 13.0398 136.888 13.1977 137.084 13.3854C137.545 13.8293 137.801 14.2304 137.852 14.5889C137.869 14.8193 137.848 15.165 137.788 15.6259C137.737 16.0782 137.712 16.3897 137.712 16.5604ZM167.644 15.9843C167.644 17.2389 168.037 17.8663 168.822 17.8663C169.368 17.8663 170.311 17.3883 171.651 16.4324C172.863 15.5362 173.584 14.9729 173.815 14.7425C174.344 14.2987 174.899 14.0768 175.479 14.0768C175.726 14.0768 175.936 14.1621 176.106 14.3328C176.286 14.495 176.375 14.7425 176.375 15.0754C176.375 15.4082 176.294 15.7112 176.132 15.9843C175.97 16.2574 175.761 16.5391 175.505 16.8293C175.257 17.1195 174.946 17.4438 174.57 17.8023C174.203 18.1607 173.781 18.5405 173.303 18.9417C172.825 19.3343 172.3 19.7269 171.728 20.1195C171.165 20.5121 170.58 20.8663 169.974 21.1821C168.608 21.8819 167.375 22.2319 166.274 22.2319C165.011 22.2319 164.153 21.66 163.701 20.5163C163.436 19.8592 163.304 19.0697 163.304 18.1479L159.578 20.67C157.027 22.4623 155.507 23.4139 155.021 23.5249C154.773 23.5846 154.522 23.6145 154.266 23.6145C154.018 23.6145 153.783 23.5889 153.561 23.5377C153.339 23.495 153.143 23.4182 152.972 23.3073C152.58 23.0768 152.384 22.7354 152.384 22.2831C152.384 22.1038 152.503 21.6686 152.742 20.9772L153.843 17.9559C154.184 16.9829 154.355 16.3983 154.355 16.202C154.355 16.1337 154.312 16.0995 154.227 16.0995C154.142 16.0995 153.984 16.1892 153.753 16.3684C153.523 16.5476 153.246 16.7781 152.921 17.0597L149.874 19.7226L148.274 21.054C146.635 22.3599 145.3 23.0128 144.267 23.0128C143.78 23.0128 143.29 22.7952 142.795 22.3599C142.257 21.899 141.988 21.3442 141.988 20.6956C141.988 20.0469 142.052 19.3385 142.18 18.5704C142.3 17.8023 142.475 17.064 142.705 16.3556C142.935 15.6387 143.221 14.9687 143.563 14.3456C143.904 13.714 144.292 13.1678 144.728 12.7069C145.667 11.6998 146.772 11.1962 148.044 11.1962C149.324 11.1962 149.964 11.5718 149.964 12.3229C149.964 12.6472 149.789 13.1422 149.439 13.8079C148.696 15.2759 148.325 16.0697 148.325 16.1892C148.325 16.3001 148.359 16.3897 148.428 16.458C148.504 16.5178 148.586 16.5476 148.671 16.5476C148.85 16.5476 149.106 16.4025 149.439 16.1123C151.633 14.192 153.011 13.0014 153.574 12.5405C154.146 12.0796 154.697 11.6742 155.226 11.3243C156.438 10.5305 157.402 10.1337 158.119 10.1337C158.708 10.1337 159.186 10.2275 159.553 10.4153C160.193 10.7482 160.513 11.1237 160.513 11.5419C160.513 11.9601 160.453 12.4338 160.334 12.963C160.223 13.4921 160.099 14.0042 159.963 14.4993L159.578 15.8051C159.459 16.1806 159.399 16.4708 159.399 16.6756C159.399 16.8719 159.485 16.9701 159.655 16.9701C160.065 16.9701 160.88 16.3897 162.101 15.229L163.342 14.064C164.768 12.7837 165.847 12.1436 166.581 12.1436C166.931 12.1436 167.243 12.2802 167.516 12.5533C167.994 13.0312 168.233 13.4495 168.233 13.8079C168.233 14.0042 168.165 14.2688 168.028 14.6017C167.772 15.2247 167.644 15.6856 167.644 15.9843Z" fill="url(#paint0_linear_2096_19292)"/>
<path d="M7.07298 16.9829C7.07298 18.4082 8.49404 19.1209 11.3362 19.1209C13.2565 19.1209 15.6676 18.3954 18.5695 16.9445L19.8753 16.2532C21.8554 15.2461 22.9735 15.0284 23.2295 15.6003C23.2978 15.7539 23.3319 15.9331 23.3319 16.1379C23.3319 16.3343 23.2466 16.5391 23.0759 16.7525C22.9137 16.9573 22.6918 17.1877 22.4102 17.4438C22.1285 17.6913 21.7999 17.9559 21.4244 18.2375C21.0489 18.5106 20.652 18.7838 20.2338 19.0569L18.9792 19.8378C18.5524 20.0939 18.0915 20.3456 17.5965 20.5932L15.7274 21.5149C12.7999 22.8805 10.0389 23.5633 7.44425 23.5633C5.17397 23.5633 3.42858 23.1152 2.20809 22.2191C1.11563 21.4253 0.569396 20.4011 0.569396 19.1465C0.569396 17.4139 1.35034 15.6685 2.91222 13.9103C4.26074 12.3997 6.10854 10.9658 8.45563 9.60876C10.504 8.42241 12.6889 7.44943 15.0104 6.68983C17.2039 5.96436 18.9834 5.60163 20.349 5.60163C20.6392 5.60163 20.8824 5.69551 21.0787 5.88328C21.4372 6.21614 21.6164 6.54473 21.6164 6.86906C21.6164 8.13222 21.0915 9.15214 20.0417 9.92882C19.1456 10.586 18.1001 10.9146 16.9052 10.9146C15.7103 10.9146 14.8141 10.7951 14.2167 10.5561C11.9891 11.4182 10.1797 12.5746 8.78849 14.0256C8.20812 14.6315 7.77711 15.1991 7.49546 15.7283C7.21381 16.2574 7.07298 16.6756 7.07298 16.9829ZM34.2272 15.1138C34.2272 15.5746 34.6198 15.8051 35.4051 15.8051C35.9854 15.8051 36.745 15.5234 37.6839 14.9601L38.7081 14.3968C39.0239 14.2176 39.297 14.128 39.5274 14.128C39.7664 14.128 39.9542 14.2005 40.0907 14.3456C40.2273 14.4907 40.2955 14.6913 40.2955 14.9473C40.2955 15.2034 40.2102 15.5021 40.0395 15.8435C39.8688 16.1764 39.6341 16.5306 39.3354 16.9061C39.0367 17.2731 38.6867 17.6401 38.2856 18.0071C37.8844 18.3656 37.4534 18.6899 36.9925 18.9801C35.9684 19.6202 35.0167 19.9402 34.1376 19.9402C33.2073 19.9402 32.4648 19.7823 31.91 19.4666C31.7393 19.3641 31.5729 19.2575 31.4107 19.1465C30.4975 20.1878 29.1746 21.1437 27.442 22.0142C25.5985 22.936 23.9896 23.3969 22.6155 23.3969C21.1731 23.3969 20.0337 22.8293 19.1973 21.6942C18.523 20.7724 18.1859 19.8378 18.1859 18.8905C18.1859 17.5249 18.9157 16.2233 20.3751 14.9857C21.4505 14.081 22.4875 13.394 23.4861 12.9246C24.4932 12.4551 25.4022 12.0924 26.213 11.8364C27.9285 11.2987 29.4733 11.0298 30.8474 11.0298C31.4619 11.0298 32.0082 11.1493 32.4861 11.3883C32.9726 11.6187 33.3311 11.8534 33.5615 12.0924C34.1078 12.6301 34.3809 13.3172 34.3809 14.1536C34.3809 14.4011 34.3553 14.5931 34.3041 14.7297C34.2528 14.8663 34.2272 14.9943 34.2272 15.1138ZM23.7549 17.5334L23.7421 17.5718V17.5846C23.7421 17.9516 23.8232 18.1906 23.9854 18.3015C24.378 18.5405 24.7919 18.6045 25.2272 18.4936C25.6625 18.3741 26.0764 18.229 26.469 18.0583C27.442 17.6401 28.3211 17.1109 29.1063 16.4708C28.9698 16.1977 28.9015 15.916 28.9015 15.6259C28.9015 15.0113 29.1703 14.3968 29.708 13.7823C29.0252 13.7823 28.1035 14.1024 26.9427 14.7425C25.6625 15.4509 24.7023 16.1806 24.0622 16.9317C23.8574 17.1877 23.7549 17.3883 23.7549 17.5334ZM51.7926 16.1251C51.7926 16.9018 52.0187 17.2902 52.4711 17.2902C53.5806 17.2902 55.023 16.5391 56.7983 15.0369L57.1439 14.7425C57.8353 14.2816 58.3943 14.0512 58.821 14.0512C59.2563 14.0512 59.5294 14.1152 59.6404 14.2432C59.7599 14.3712 59.8196 14.5761 59.8196 14.8577C59.8196 15.4893 59.4996 16.1593 58.8594 16.8677C57.9035 18.0284 56.5934 19.1294 54.9291 20.1707C53.0002 21.3826 51.2719 21.9886 49.7442 21.9886C48.6773 21.9886 48.0073 21.3954 47.7342 20.2091C47.6574 19.9018 47.6019 19.6074 47.5678 19.3257C47.4824 18.6429 47.3928 18.2631 47.2989 18.1863C47.2051 18.1095 47.0173 18.118 46.7356 18.2119C46.4625 18.2973 46.1339 18.4466 45.7499 18.66C45.3743 18.8648 44.9561 19.1166 44.4952 19.4153C42.0542 21.037 40.6503 21.963 40.2833 22.1935C39.4042 22.7397 38.811 23.0128 38.5037 23.0128C38.1965 23.0128 37.8935 22.9488 37.5948 22.8208C37.3046 22.6927 37.0485 22.5306 36.8266 22.3343C36.3657 21.899 36.1353 21.4552 36.1353 21.0028C36.1353 18.4168 36.6986 16.155 37.8252 14.2176C38.5763 12.9118 39.498 12.0071 40.5905 11.5035C41.1453 11.2389 41.7427 11.1066 42.3828 11.1066C43.5521 11.1066 44.1368 11.4907 44.1368 12.2588C44.1368 12.7283 43.8594 13.4964 43.3046 14.5633L42.9205 15.3186C42.6474 15.8392 42.5151 16.1337 42.5237 16.202C42.5749 16.458 42.6901 16.586 42.8693 16.586C43.0656 16.586 43.3558 16.4409 43.7399 16.1508L46.0955 14.3968L47.2733 13.5775C48.6304 12.6899 49.629 12.246 50.2691 12.246C50.6105 12.246 50.922 12.3826 51.2036 12.6557C51.7243 13.1507 51.9846 13.5817 51.9846 13.9488C51.9846 14.0682 51.9718 14.2133 51.9462 14.384C51.9291 14.5547 51.9078 14.7382 51.8822 14.9345L51.831 15.5362C51.8054 15.7411 51.7926 15.9374 51.7926 16.1251ZM70.7789 14.2304C71.6153 14.2304 72.0336 14.5206 72.0336 15.101C72.0336 15.6557 71.6409 16.3727 70.8557 17.2518L70.2284 17.9047C69.4688 18.6813 68.5812 19.4452 67.5655 20.1963C66.5584 20.9474 65.6708 21.5405 64.9027 21.9758C63.1189 22.9659 61.5015 23.4609 60.0506 23.4609C58.685 23.4609 57.5712 23.0512 56.7092 22.2319C55.9666 21.5235 55.5954 20.7767 55.5954 19.9915C55.5954 19.2062 55.6722 18.4253 55.8258 17.6486C55.9794 16.8719 56.18 16.1123 56.4275 15.3698C56.9225 13.8591 57.4645 12.5746 58.0534 11.5163C58.207 11.2261 58.2838 11.0384 58.2838 10.953H56.6323C56.0093 10.953 55.5271 10.8079 55.1857 10.5177C54.8443 10.2275 54.6736 9.89895 54.6736 9.53195C54.6736 9.16494 54.7419 8.8961 54.8784 8.7254C55.015 8.5547 55.1857 8.43094 55.3905 8.35413C55.6807 8.23464 56.1075 8.1749 56.6708 8.1749L59.8073 8.1877C59.8756 8.1621 60.0122 7.9786 60.217 7.6372L60.9979 6.29295C61.3308 5.69551 61.6637 5.25597 61.9965 4.97431C62.3379 4.69266 62.7348 4.55184 63.1871 4.55184C63.648 4.55184 64.0321 4.59451 64.3394 4.67986C64.6551 4.76521 64.9197 4.8719 65.1331 4.99992C65.5513 5.27304 65.7604 5.57176 65.7604 5.89608C65.7604 6.03264 65.7135 6.21614 65.6196 6.44658L64.9027 8.1877L70.9838 8.1749C71.5129 8.1749 71.7775 8.44801 71.7775 8.99425C71.7775 10.2916 70.621 10.9402 68.3081 10.9402L63.6224 10.953C63.52 11.0042 63.345 11.2517 63.0975 11.6955L62.5214 12.7581C62.3763 13.0227 62.2739 13.2233 62.2142 13.3598L61.9325 13.9872C61.3607 15.2759 61.0748 16.2062 61.0748 16.7781C61.0748 17.3499 61.2241 17.8279 61.5228 18.2119C61.8301 18.596 62.2355 18.788 62.7391 18.788C63.2426 18.788 63.7334 18.6899 64.2113 18.4936C64.6978 18.2973 65.1715 18.0583 65.6324 17.7766C66.4688 17.256 67.126 16.7738 67.6039 16.33C68.0819 15.8862 68.4788 15.549 68.7946 15.3186C68.7946 15.3186 69.0933 15.1095 69.6907 14.6913C70.1516 14.384 70.5143 14.2304 70.7789 14.2304ZM80.2916 8.2005C80.0441 8.40534 79.7752 8.57604 79.485 8.7126C79.1948 8.84062 78.8705 8.90463 78.512 8.90463C78.1536 8.90463 77.8079 8.84489 77.4751 8.7254C77.1422 8.60591 76.852 8.43948 76.6045 8.22611C76.0668 7.76522 75.798 7.17632 75.798 6.45939C75.798 5.35838 76.7197 4.53903 78.5633 4.00134C79.1863 3.81357 79.6984 3.71969 80.0995 3.71969C80.5007 3.71969 80.7994 3.76663 80.9957 3.86051C81.2005 3.94586 81.367 4.06108 81.495 4.20617C81.751 4.49636 81.8791 4.79508 81.8791 5.10234C81.8791 5.40106 81.8407 5.67418 81.7638 5.92169C81.6956 6.1692 81.5931 6.42525 81.4566 6.68983C81.32 6.95441 81.1536 7.21899 80.9573 7.48357C80.761 7.74815 80.5391 7.98713 80.2916 8.2005ZM77.0654 22.2959C76.4167 22.6287 75.7852 22.8933 75.1706 23.0896C74.5561 23.2945 73.9501 23.3969 73.3527 23.3969C72.7638 23.3969 72.1493 23.256 71.5092 22.9744C70.8776 22.6842 70.3143 22.3001 69.8193 21.8222C68.7183 20.7553 68.1678 19.569 68.1678 18.2631C68.1678 17.0597 68.5262 15.8392 69.2432 14.6017C69.9003 13.4836 70.7368 12.5448 71.7524 11.7852C72.7681 11.0256 73.7112 10.6457 74.5817 10.6457C75.8278 10.6457 76.4935 10.9957 76.5789 11.6955C76.6045 11.9089 76.6173 12.1564 76.6173 12.4381C76.6173 12.7197 76.549 13.0441 76.4125 13.4111C76.2844 13.7695 76.1137 14.1323 75.9004 14.4993C75.6955 14.8577 75.4651 15.2119 75.209 15.5618C74.9615 15.9032 74.7226 16.2148 74.4921 16.4964C74.0483 17.0341 73.6941 17.4225 73.4295 17.6614C73.4295 17.9516 73.6472 18.2503 74.0824 18.5576C74.4921 18.8478 74.8378 18.9929 75.1194 18.9929C75.4096 18.9929 75.7467 18.9246 76.1308 18.788C76.5234 18.6515 76.9246 18.468 77.3342 18.2375C77.7524 18.0071 78.1749 17.7425 78.6017 17.4438C79.0369 17.1451 79.4637 16.8378 79.8819 16.522L82.2247 14.6913C83.155 14.017 83.9104 13.6799 84.4907 13.6799C84.7212 13.6799 84.8961 13.7653 85.0156 13.9359C85.1437 14.0981 85.2077 14.2901 85.2077 14.5121C85.2077 14.734 85.0967 15.0412 84.8748 15.4338C84.6529 15.8179 84.3456 16.2446 83.953 16.7141C83.569 17.1835 83.1166 17.6742 82.596 18.1863C82.0754 18.6984 81.5121 19.202 80.9061 19.697C80.3001 20.192 79.6685 20.6657 79.0113 21.1181C78.3627 21.5619 77.714 21.9545 77.0654 22.2959ZM95.9749 16.1251C95.9749 16.9018 96.2011 17.2902 96.6535 17.2902C97.763 17.2902 99.2054 16.5391 100.981 15.0369L101.326 14.7425C102.018 14.2816 102.577 14.0512 103.003 14.0512C103.439 14.0512 103.712 14.1152 103.823 14.2432C103.942 14.3712 104.002 14.5761 104.002 14.8577C104.002 15.4893 103.682 16.1593 103.042 16.8677C102.086 18.0284 100.776 19.1294 99.1115 20.1707C97.1826 21.3826 95.4543 21.9886 93.9266 21.9886C92.8597 21.9886 92.1897 21.3954 91.9166 20.2091C91.8398 19.9018 91.7843 19.6074 91.7502 19.3257C91.6648 18.6429 91.5752 18.2631 91.4813 18.1863C91.3874 18.1095 91.1997 18.118 90.918 18.2119C90.6449 18.2973 90.3163 18.4466 89.9322 18.66C89.5567 18.8648 89.1385 19.1166 88.6776 19.4153C86.2366 21.037 84.8326 21.963 84.4656 22.1935C83.5866 22.7397 82.9934 23.0128 82.6861 23.0128C82.3789 23.0128 82.0759 22.9488 81.7772 22.8208C81.487 22.6927 81.2309 22.5306 81.009 22.3343C80.5481 21.899 80.3177 21.4552 80.3177 21.0028C80.3177 18.4168 80.881 16.155 82.0076 14.2176C82.7587 12.9118 83.6804 12.0071 84.7729 11.5035C85.3277 11.2389 85.9251 11.1066 86.5652 11.1066C87.7345 11.1066 88.3191 11.4907 88.3191 12.2588C88.3191 12.7283 88.0418 13.4964 87.487 14.5633L87.1029 15.3186C86.8298 15.8392 86.6975 16.1337 86.7061 16.202C86.7573 16.458 86.8725 16.586 87.0517 16.586C87.248 16.586 87.5382 16.4409 87.9223 16.1508L90.2779 14.3968L91.4557 13.5775C92.8128 12.6899 93.8113 12.246 94.4515 12.246C94.7929 12.246 95.1044 12.3826 95.386 12.6557C95.9067 13.1507 96.167 13.5817 96.167 13.9488C96.167 14.0682 96.1542 14.2133 96.1286 14.384C96.1115 14.5547 96.0902 14.7382 96.0646 14.9345L96.0133 15.5362C95.9877 15.7411 95.9749 15.9374 95.9749 16.1251ZM116.446 16.5604C116.446 17.4225 116.826 17.8535 117.586 17.8535C118.345 17.8535 119.66 17.1237 121.529 15.6643L122.656 14.7425C123.398 14.128 124.106 13.8207 124.781 13.8207C125.028 13.8207 125.19 13.889 125.267 14.0256C125.344 14.1536 125.382 14.32 125.382 14.5249C125.382 14.7212 125.344 14.9303 125.267 15.1522C125.199 15.3655 125.101 15.5917 124.973 15.8307C124.691 16.3684 124.418 16.7866 124.153 17.0853C123.889 17.384 123.577 17.6956 123.219 18.0199C122.869 18.3357 122.451 18.6941 121.964 19.0953C121.478 19.4879 120.94 19.8933 120.351 20.3115C119.762 20.7212 119.169 21.0967 118.572 21.4381C117.223 22.2233 116.114 22.6159 115.243 22.6159C114.202 22.6159 113.387 22.2489 112.798 21.5149C112.243 20.8321 111.931 19.9189 111.863 18.7752C110.327 20.3542 108.701 21.5704 106.985 22.4239C105.936 22.9445 105.048 23.2048 104.323 23.2048C103.597 23.2048 102.961 23.1195 102.415 22.9488C101.869 22.7696 101.391 22.505 100.981 22.155C100.094 21.4125 99.6497 20.3798 99.6497 19.0569C99.6497 17.1621 100.328 15.3357 101.685 13.5775C102.112 13.0312 102.59 12.5533 103.119 12.1436C104.263 11.4267 105.475 11.0682 106.755 11.0682C107.318 11.0682 107.719 11.2432 107.958 11.5931C108.052 11.7297 108.099 11.9089 108.099 12.1308C108.099 12.3442 108.035 12.596 107.907 12.8862C107.788 13.1678 107.638 13.4665 107.459 13.7823C107.28 14.0896 107.079 14.4096 106.857 14.7425C106.644 15.0754 106.448 15.3997 106.269 15.7155C105.842 16.4665 105.628 17.0085 105.628 17.3414C105.628 17.6657 105.722 17.9047 105.91 18.0583C106.098 18.2119 106.328 18.2887 106.601 18.2887C107.207 18.2887 107.724 18.1436 108.15 17.8535C108.577 17.5547 109 17.2133 109.418 16.8293L110.621 15.6515L111.786 14.448C112.614 13.6031 113.242 13.0782 113.668 12.8734C114.104 12.66 114.419 12.5789 114.616 12.6301C114.812 12.6813 115.013 12.7752 115.217 12.9118C115.422 13.0398 115.623 13.1977 115.819 13.3854C116.28 13.8293 116.536 14.2304 116.587 14.5889C116.604 14.8193 116.583 15.165 116.523 15.6259C116.472 16.0782 116.446 16.3897 116.446 16.5604ZM137.712 16.5604C137.712 17.4225 138.091 17.8535 138.851 17.8535C139.611 17.8535 140.925 17.1237 142.794 15.6643L143.921 14.7425C144.663 14.128 145.372 13.8207 146.046 13.8207C146.293 13.8207 146.456 13.889 146.532 14.0256C146.609 14.1536 146.648 14.32 146.648 14.5249C146.648 14.7212 146.609 14.9303 146.532 15.1522C146.464 15.3655 146.366 15.5917 146.238 15.8307C145.956 16.3684 145.683 16.7866 145.419 17.0853C145.154 17.384 144.842 17.6956 144.484 18.0199C144.134 18.3357 143.716 18.6941 143.229 19.0953C142.743 19.4879 142.205 19.8933 141.616 20.3115C141.027 20.7212 140.434 21.0967 139.837 21.4381C138.488 22.2233 137.379 22.6159 136.508 22.6159C135.467 22.6159 134.652 22.2489 134.063 21.5149C133.508 20.8321 133.197 19.9189 133.128 18.7752C131.592 20.3542 129.966 21.5704 128.251 22.4239C127.201 22.9445 126.313 23.2048 125.588 23.2048C124.862 23.2048 124.226 23.1195 123.68 22.9488C123.134 22.7696 122.656 22.505 122.246 22.155C121.359 21.4125 120.915 20.3798 120.915 19.0569C120.915 17.1621 121.593 15.3357 122.95 13.5775C123.377 13.0312 123.855 12.5533 124.384 12.1436C125.528 11.4267 126.74 11.0682 128.02 11.0682C128.584 11.0682 128.985 11.2432 129.224 11.5931C129.318 11.7297 129.364 11.9089 129.364 12.1308C129.364 12.3442 129.3 12.596 129.172 12.8862C129.053 13.1678 128.904 13.4665 128.724 13.7823C128.545 14.0896 128.345 14.4096 128.123 14.7425C127.909 15.0754 127.713 15.3997 127.534 15.7155C127.107 16.4665 126.894 17.0085 126.894 17.3414C126.894 17.6657 126.987 17.9047 127.175 18.0583C127.363 18.2119 127.593 18.2887 127.867 18.2887C128.473 18.2887 128.989 18.1436 129.416 17.8535C129.842 17.5547 130.265 17.2133 130.683 16.8293L131.887 15.6515L133.052 14.448C133.879 13.6031 134.507 13.0782 134.933 12.8734C135.369 12.66 135.685 12.5789 135.881 12.6301C136.077 12.6813 136.278 12.7752 136.483 12.9118C136.687 13.0398 136.888 13.1977 137.084 13.3854C137.545 13.8293 137.801 14.2304 137.852 14.5889C137.869 14.8193 137.848 15.165 137.788 15.6259C137.737 16.0782 137.712 16.3897 137.712 16.5604ZM167.644 15.9843C167.644 17.2389 168.037 17.8663 168.822 17.8663C169.368 17.8663 170.311 17.3883 171.651 16.4324C172.863 15.5362 173.584 14.9729 173.815 14.7425C174.344 14.2987 174.899 14.0768 175.479 14.0768C175.726 14.0768 175.936 14.1621 176.106 14.3328C176.286 14.495 176.375 14.7425 176.375 15.0754C176.375 15.4082 176.294 15.7112 176.132 15.9843C175.97 16.2574 175.761 16.5391 175.505 16.8293C175.257 17.1195 174.946 17.4438 174.57 17.8023C174.203 18.1607 173.781 18.5405 173.303 18.9417C172.825 19.3343 172.3 19.7269 171.728 20.1195C171.165 20.5121 170.58 20.8663 169.974 21.1821C168.608 21.8819 167.375 22.2319 166.274 22.2319C165.011 22.2319 164.153 21.66 163.701 20.5163C163.436 19.8592 163.304 19.0697 163.304 18.1479L159.578 20.67C157.027 22.4623 155.507 23.4139 155.021 23.5249C154.773 23.5846 154.522 23.6145 154.266 23.6145C154.018 23.6145 153.783 23.5889 153.561 23.5377C153.339 23.495 153.143 23.4182 152.972 23.3073C152.58 23.0768 152.384 22.7354 152.384 22.2831C152.384 22.1038 152.503 21.6686 152.742 20.9772L153.843 17.9559C154.184 16.9829 154.355 16.3983 154.355 16.202C154.355 16.1337 154.312 16.0995 154.227 16.0995C154.142 16.0995 153.984 16.1892 153.753 16.3684C153.523 16.5476 153.246 16.7781 152.921 17.0597L149.874 19.7226L148.274 21.054C146.635 22.3599 145.3 23.0128 144.267 23.0128C143.78 23.0128 143.29 22.7952 142.795 22.3599C142.257 21.899 141.988 21.3442 141.988 20.6956C141.988 20.0469 142.052 19.3385 142.18 18.5704C142.3 17.8023 142.475 17.064 142.705 16.3556C142.935 15.6387 143.221 14.9687 143.563 14.3456C143.904 13.714 144.292 13.1678 144.728 12.7069C145.667 11.6998 146.772 11.1962 148.044 11.1962C149.324 11.1962 149.964 11.5718 149.964 12.3229C149.964 12.6472 149.789 13.1422 149.439 13.8079C148.696 15.2759 148.325 16.0697 148.325 16.1892C148.325 16.3001 148.359 16.3897 148.428 16.458C148.504 16.5178 148.586 16.5476 148.671 16.5476C148.85 16.5476 149.106 16.4025 149.439 16.1123C151.633 14.192 153.011 13.0014 153.574 12.5405C154.146 12.0796 154.697 11.6742 155.226 11.3243C156.438 10.5305 157.402 10.1337 158.119 10.1337C158.708 10.1337 159.186 10.2275 159.553 10.4153C160.193 10.7482 160.513 11.1237 160.513 11.5419C160.513 11.9601 160.453 12.4338 160.334 12.963C160.223 13.4921 160.099 14.0042 159.963 14.4993L159.578 15.8051C159.459 16.1806 159.399 16.4708 159.399 16.6756C159.399 16.8719 159.485 16.9701 159.655 16.9701C160.065 16.9701 160.88 16.3897 162.101 15.229L163.342 14.064C164.768 12.7837 165.847 12.1436 166.581 12.1436C166.931 12.1436 167.243 12.2802 167.516 12.5533C167.994 13.0312 168.233 13.4495 168.233 13.8079C168.233 14.0042 168.165 14.2688 168.028 14.6017C167.772 15.2247 167.644 15.6856 167.644 15.9843Z" fill="#142025" fill-opacity="0.78"/>
<defs>
<linearGradient id="paint0_linear_2096_19292" x1="68.2525" y1="-75.375" x2="134.76" y2="412.691" gradientUnits="userSpaceOnUse">
<stop stop-color="#24B5F8"/>
<stop offset="1" stop-color="#5521FE"/>
</linearGradient>
</defs>
</svg>
